<svg xmlns="http://www.w3.org/2000/svg" xmlns:xlink="http://www.w3.org/1999/xlink" width="926" zoomAndPan="magnify" viewBox="0 0 694.5 530.249967" height="707" preserveAspectRatio="xMidYMid meet" version="1.0"><defs><clipPath id="bdcf328d74"><path d="M 5 66 L 645 66 L 645 524.265625 L 5 524.265625 Z M 5 66 " clip-rule="nonzero"/></clipPath><clipPath id="68d759ce56"><rect x="0" width="686" y="0" height="525"/></clipPath></defs><g transform="matrix(1, 0, 0, 1, 6, 0.000000000000030273)"><g clip-path="url(#68d759ce56)"><path fill="#004aad" d="M 606.367188 279.925781 C 598.972656 287.320312 591.710938 288.121094 590.421875 286.785156 C 589.21875 285.496094 589.929688 278.324219 597.371094 270.882812 C 604.71875 263.488281 611.890625 262.6875 613.183594 264.023438 C 614.519531 265.316406 613.71875 272.488281 606.367188 279.925781 Z M 611.667969 69.582031 L 452.375 0.0898438 C 454.378906 4.230469 525.074219 150.121094 526.988281 154.308594 C 529.527344 155.507812 649.933594 213.777344 652.429688 214.976562 L 616.925781 250.480469 C 608.460938 247.765625 597.058594 251.59375 587.480469 261.082031 C 559.460938 289.414062 587.792969 317.746094 616.125 289.726562 C 625.613281 280.238281 629.441406 268.746094 626.726562 260.371094 L 665.660156 221.4375 L 681.207031 228.921875 L 611.667969 69.582031 " fill-opacity="1" fill-rule="nonzero"/><g clip-path="url(#bdcf328d74)"><path fill="#004aad" d="M 62.507812 472.230469 L 110.304688 424.433594 L 531.53125 424.433594 L 583.960938 472.230469 Z M 357.179688 514.726562 L 292.855469 514.726562 C 273.078125 514.726562 273.164062 484.835938 292.855469 484.835938 L 357.179688 484.835938 C 376.957031 484.835938 377.046875 514.726562 357.179688 514.726562 Z M 115.339844 148.917969 L 437.226562 148.917969 L 526.273438 238.097656 L 526.273438 396.636719 L 115.339844 396.636719 Z M 543.425781 412.050781 L 543.425781 255.246094 C 553.179688 264.914062 567.835938 263.890625 576.390625 255.335938 L 614.519531 217.207031 C 565.03125 193.105469 513.179688 168.070312 513.179688 168.070312 C 510.550781 162.859375 466.671875 72.207031 464.179688 66.863281 C 428.183594 102.855469 411.523438 113.324219 421.726562 131.675781 L 123.9375 131.675781 C 109.683594 131.675781 98.191406 143.171875 98.191406 157.378906 L 98.191406 412.226562 L 9.632812 500.695312 C 1.300781 509.070312 5.535156 524.484375 19.65625 524.484375 L 631.582031 524.484375 C 643.875 524.261719 648.910156 508.269531 639.824219 500.070312 L 543.425781 412.050781 " fill-opacity="1" fill-rule="nonzero"/></g><path fill="#004aad" d="M 319.761719 292.753906 C 297.578125 292.753906 299.179688 266.027344 308.847656 255.960938 C 320.074219 242.996094 341.945312 246.871094 341.945312 265.9375 C 341.945312 280.460938 332.144531 292.753906 319.761719 292.753906 Z M 293.03125 197.738281 C 249.957031 216.402344 232.851562 265.316406 249.644531 304.558594 C 269.023438 350.398438 326.398438 369.996094 376.109375 340.328125 L 372.371094 334.40625 C 340.117188 353.25 298.46875 351.332031 272.453125 325.316406 C 244.03125 297.386719 244.121094 248.789062 272.363281 220.546875 C 301.496094 190.476562 349.828125 192.707031 377.757812 218.941406 C 404.351562 244.332031 401.546875 278.144531 391.746094 293.558594 C 381.992188 308.480469 361.410156 305.140625 361.410156 291.417969 C 361.410156 286.785156 369.875 240.101562 370.675781 235.46875 L 348.671875 231.949219 L 346.578125 241.839844 C 339.941406 232.351562 330.941406 229.097656 320.875 229.097656 C 271.964844 229.097656 261.671875 312 313.210938 312 C 322.167969 312 331.03125 309.371094 340.832031 300.816406 C 352.5 314.539062 381.277344 317.34375 395.667969 300.328125 C 408.496094 285.582031 409.921875 257.964844 400.34375 237.382812 C 381.457031 197.828125 332.457031 180.589844 293.03125 197.738281 " fill-opacity="1" fill-rule="nonzero"/></g></g></svg>